<svg width="259" height="78" viewBox="0 0 259 78" fill="none" xmlns="http://www.w3.org/2000/svg">
<rect width="259" height="78" rx="16" fill="white"/>
<circle cx="41" cy="39" r="28" fill="#15DD6F"/>
<path d="M80.3906 47V31H86.7969C87.974 31 88.9557 31.1745 89.7422 31.5234C90.5286 31.8724 91.1198 32.3568 91.5156 32.9766C91.9115 33.5911 92.1094 34.2995 92.1094 35.1016C92.1094 35.7266 91.9844 36.276 91.7344 36.75C91.4844 37.2187 91.1406 37.6042 90.7031 37.9062C90.2708 38.2031 89.776 38.4141 89.2188 38.5391V38.6953C89.8281 38.7214 90.3984 38.8932 90.9297 39.2109C91.4661 39.5286 91.901 39.974 92.2344 40.5469C92.5677 41.1146 92.7344 41.7917 92.7344 42.5781C92.7344 43.4271 92.5234 44.1849 92.1016 44.8516C91.6849 45.513 91.0677 46.0365 90.25 46.4219C89.4323 46.8073 88.4245 47 87.2266 47H80.3906ZM83.7734 44.2344H86.5313C87.474 44.2344 88.1615 44.0547 88.5938 43.6953C89.026 43.3307 89.2422 42.8464 89.2422 42.2422C89.2422 41.7995 89.1354 41.4089 88.9219 41.0703C88.7083 40.7318 88.4036 40.4661 88.0078 40.2734C87.6172 40.0807 87.151 39.9844 86.6094 39.9844H83.7734V44.2344ZM83.7734 37.6953H86.2812C86.7448 37.6953 87.1563 37.6146 87.5156 37.4531C87.8802 37.2865 88.1667 37.0521 88.375 36.75C88.5885 36.4479 88.6953 36.0859 88.6953 35.6641C88.6953 35.0859 88.4896 34.6198 88.0781 34.2656C87.6719 33.9115 87.0938 33.7344 86.3438 33.7344H83.7734V37.6953ZM100.342 47.2344C99.1074 47.2344 98.0449 46.9844 97.1543 46.4844C96.2689 45.9792 95.5866 45.2656 95.1074 44.3437C94.6283 43.4167 94.3887 42.3203 94.3887 41.0547C94.3887 39.8203 94.6283 38.737 95.1074 37.8047C95.5866 36.8724 96.2611 36.1458 97.1309 35.625C98.0059 35.1042 99.0319 34.8438 100.209 34.8438C101.001 34.8438 101.738 34.9714 102.42 35.2266C103.107 35.4766 103.706 35.8542 104.217 36.3594C104.732 36.8646 105.133 37.5 105.42 38.2656C105.706 39.026 105.85 39.9167 105.85 40.9375V41.8516H95.7168V39.7891H102.717C102.717 39.3099 102.613 38.8854 102.404 38.5156C102.196 38.1458 101.907 37.8568 101.537 37.6484C101.173 37.4349 100.748 37.3281 100.264 37.3281C99.7585 37.3281 99.3105 37.4453 98.9199 37.6797C98.5345 37.9089 98.2324 38.2187 98.0137 38.6094C97.7949 38.9948 97.6829 39.4245 97.6777 39.8984V41.8594C97.6777 42.4531 97.7871 42.9661 98.0059 43.3984C98.2298 43.8307 98.5449 44.1641 98.9512 44.3984C99.3574 44.6328 99.8392 44.75 100.396 44.75C100.766 44.75 101.105 44.6979 101.412 44.5938C101.719 44.4896 101.982 44.3333 102.201 44.125C102.42 43.9167 102.587 43.6615 102.701 43.3594L105.779 43.5625C105.623 44.3021 105.303 44.9479 104.818 45.5C104.339 46.0469 103.719 46.474 102.959 46.7813C102.204 47.0833 101.331 47.2344 100.342 47.2344ZM118.006 38.4219L114.959 38.6094C114.907 38.349 114.795 38.1146 114.623 37.9062C114.451 37.6927 114.225 37.5234 113.943 37.3984C113.667 37.2682 113.337 37.2031 112.951 37.2031C112.436 37.2031 112.001 37.3125 111.646 37.5312C111.292 37.7448 111.115 38.0312 111.115 38.3906C111.115 38.6771 111.23 38.9193 111.459 39.1172C111.688 39.3151 112.081 39.474 112.639 39.5937L114.811 40.0312C115.977 40.2708 116.847 40.6562 117.42 41.1875C117.993 41.7187 118.279 42.4167 118.279 43.2812C118.279 44.0677 118.048 44.7578 117.584 45.3516C117.126 45.9453 116.495 46.4089 115.693 46.7422C114.896 47.0703 113.977 47.2344 112.936 47.2344C111.347 47.2344 110.081 46.9036 109.139 46.2422C108.201 45.5755 107.652 44.6693 107.49 43.5234L110.764 43.3516C110.863 43.8359 111.102 44.2057 111.482 44.4609C111.863 44.7109 112.35 44.8359 112.943 44.8359C113.527 44.8359 113.995 44.724 114.35 44.5C114.709 44.2708 114.891 43.9766 114.896 43.6172C114.891 43.3151 114.764 43.0677 114.514 42.875C114.264 42.6771 113.878 42.526 113.357 42.4219L111.279 42.0078C110.107 41.7734 109.235 41.3672 108.662 40.7891C108.094 40.2109 107.811 39.474 107.811 38.5781C107.811 37.8073 108.019 37.1432 108.436 36.5859C108.857 36.0286 109.449 35.599 110.209 35.2969C110.975 34.9948 111.87 34.8438 112.896 34.8438C114.412 34.8438 115.605 35.1641 116.475 35.8047C117.35 36.4453 117.86 37.3177 118.006 38.4219ZM126.758 35V37.5H119.531V35H126.758ZM121.172 32.125H124.5V43.3125C124.5 43.6198 124.547 43.8594 124.641 44.0312C124.734 44.1979 124.865 44.3151 125.031 44.3828C125.203 44.4505 125.401 44.4844 125.625 44.4844C125.781 44.4844 125.938 44.4714 126.094 44.4453C126.25 44.4141 126.37 44.3906 126.453 44.375L126.977 46.8516C126.81 46.9036 126.576 46.9635 126.273 47.0313C125.971 47.1042 125.604 47.1484 125.172 47.1641C124.37 47.1953 123.667 47.0885 123.063 46.8437C122.464 46.599 121.997 46.2187 121.664 45.7031C121.331 45.1875 121.167 44.5365 121.172 43.75V32.125ZM136.385 47L133.119 35H136.486L138.346 43.0625H138.455L140.393 35H143.697L145.666 43.0156H145.768L147.596 35H150.955L147.697 47H144.174L142.111 39.4531H141.963L139.9 47H136.385ZM157.852 47.2344C156.638 47.2344 155.589 46.9766 154.703 46.4609C153.823 45.9401 153.143 45.2161 152.664 44.2891C152.185 43.3568 151.945 42.276 151.945 41.0469C151.945 39.8073 152.185 38.724 152.664 37.7969C153.143 36.8646 153.823 36.1406 154.703 35.625C155.589 35.1042 156.638 34.8438 157.852 34.8438C159.065 34.8438 160.112 35.1042 160.992 35.625C161.878 36.1406 162.56 36.8646 163.039 37.7969C163.518 38.724 163.758 39.8073 163.758 41.0469C163.758 42.276 163.518 43.3568 163.039 44.2891C162.56 45.2161 161.878 45.9401 160.992 46.4609C160.112 46.9766 159.065 47.2344 157.852 47.2344ZM157.867 44.6562C158.419 44.6562 158.88 44.5 159.25 44.1875C159.62 43.8698 159.898 43.4375 160.086 42.8906C160.279 42.3437 160.375 41.7214 160.375 41.0234C160.375 40.3255 160.279 39.7031 160.086 39.1562C159.898 38.6094 159.62 38.1771 159.25 37.8594C158.88 37.5417 158.419 37.3828 157.867 37.3828C157.31 37.3828 156.841 37.5417 156.461 37.8594C156.086 38.1771 155.802 38.6094 155.609 39.1562C155.422 39.7031 155.328 40.3255 155.328 41.0234C155.328 41.7214 155.422 42.3437 155.609 42.8906C155.802 43.4375 156.086 43.8698 156.461 44.1875C156.841 44.5 157.31 44.6562 157.867 44.6562ZM165.922 47V35H169.148V37.0937H169.273C169.492 36.349 169.859 35.7865 170.375 35.4063C170.891 35.0208 171.484 34.8281 172.156 34.8281C172.323 34.8281 172.503 34.8385 172.695 34.8594C172.888 34.8802 173.057 34.9089 173.203 34.9453V37.8984C173.047 37.8516 172.831 37.8099 172.555 37.7734C172.279 37.737 172.026 37.7188 171.797 37.7188C171.307 37.7188 170.87 37.8255 170.484 38.0391C170.104 38.2474 169.802 38.5391 169.578 38.9141C169.359 39.2891 169.25 39.7214 169.25 40.2109V47H165.922ZM177.939 43.5469L177.947 39.5547H178.432L182.275 35H186.096L180.932 41.0313H180.143L177.939 43.5469ZM174.924 47V31H178.252V47H174.924ZM182.424 47L178.893 41.7734L181.111 39.4219L186.322 47H182.424ZM187.729 51.5V35H191.01V37.0156H191.158C191.304 36.6927 191.515 36.3646 191.791 36.0312C192.072 35.6927 192.437 35.4115 192.885 35.1875C193.338 34.9583 193.9 34.8438 194.572 34.8438C195.447 34.8438 196.255 35.0729 196.994 35.5313C197.734 35.9844 198.325 36.6693 198.768 37.5859C199.21 38.4974 199.432 39.6406 199.432 41.0156C199.432 42.3542 199.215 43.4844 198.783 44.4062C198.356 45.3229 197.773 46.0182 197.033 46.4922C196.299 46.9609 195.476 47.1953 194.564 47.1953C193.919 47.1953 193.369 47.0885 192.916 46.875C192.468 46.6615 192.101 46.3932 191.814 46.0703C191.528 45.7422 191.309 45.4115 191.158 45.0781H191.057V51.5H187.729ZM190.986 41C190.986 41.7135 191.085 42.3359 191.283 42.8672C191.481 43.3984 191.768 43.8125 192.143 44.1094C192.518 44.401 192.973 44.5469 193.51 44.5469C194.051 44.5469 194.51 44.3984 194.885 44.1016C195.26 43.7995 195.544 43.3828 195.736 42.8516C195.934 42.3151 196.033 41.6979 196.033 41C196.033 40.3073 195.937 39.6979 195.744 39.1719C195.551 38.6458 195.268 38.2344 194.893 37.9375C194.518 37.6406 194.057 37.4922 193.51 37.4922C192.968 37.4922 192.51 37.6354 192.135 37.9219C191.765 38.2083 191.481 38.6146 191.283 39.1406C191.085 39.6667 190.986 40.2865 190.986 41ZM204.979 31V47H201.65V31H204.979ZM211.066 47.2266C210.301 47.2266 209.618 47.0938 209.02 46.8281C208.421 46.5573 207.947 46.1589 207.598 45.6328C207.254 45.1016 207.082 44.4401 207.082 43.6484C207.082 42.9818 207.204 42.4219 207.449 41.9687C207.694 41.5156 208.027 41.151 208.449 40.875C208.871 40.599 209.35 40.3906 209.887 40.25C210.428 40.1094 210.996 40.0104 211.59 39.9531C212.288 39.8802 212.85 39.8125 213.277 39.75C213.704 39.6823 214.014 39.5833 214.207 39.4531C214.4 39.3229 214.496 39.1302 214.496 38.875V38.8281C214.496 38.3333 214.34 37.9505 214.027 37.6797C213.72 37.4089 213.283 37.2734 212.715 37.2734C212.116 37.2734 211.639 37.4062 211.285 37.6719C210.931 37.9323 210.697 38.2604 210.582 38.6562L207.504 38.4062C207.66 37.6771 207.967 37.0469 208.426 36.5156C208.884 35.9792 209.475 35.5677 210.199 35.2812C210.928 34.9896 211.772 34.8438 212.73 34.8438C213.397 34.8438 214.035 34.9219 214.645 35.0781C215.259 35.2344 215.803 35.4766 216.277 35.8047C216.757 36.1328 217.134 36.5547 217.41 37.0703C217.686 37.5807 217.824 38.1927 217.824 38.9062V47H214.668V45.3359H214.574C214.382 45.7109 214.124 46.0417 213.801 46.3281C213.478 46.6094 213.09 46.8307 212.637 46.9922C212.184 47.1484 211.66 47.2266 211.066 47.2266ZM212.02 44.9297C212.509 44.9297 212.941 44.8333 213.316 44.6406C213.691 44.4427 213.986 44.1771 214.199 43.8438C214.413 43.5104 214.52 43.1328 214.52 42.7109V41.4375C214.415 41.5052 214.272 41.5677 214.09 41.625C213.913 41.6771 213.712 41.7266 213.488 41.7734C213.264 41.8151 213.04 41.8542 212.816 41.8906C212.592 41.9219 212.389 41.9505 212.207 41.9766C211.816 42.0339 211.475 42.125 211.184 42.25C210.892 42.375 210.665 42.5443 210.504 42.7578C210.342 42.9661 210.262 43.2266 210.262 43.5391C210.262 43.9922 210.426 44.3385 210.754 44.5781C211.087 44.8125 211.509 44.9297 212.02 44.9297ZM225.828 47.2344C224.599 47.2344 223.542 46.974 222.656 46.4531C221.776 45.9271 221.099 45.1979 220.625 44.2656C220.156 43.3333 219.922 42.2604 219.922 41.0469C219.922 39.8177 220.159 38.7396 220.633 37.8125C221.112 36.8802 221.792 36.1536 222.672 35.6328C223.552 35.1068 224.599 34.8438 225.813 34.8438C226.859 34.8438 227.776 35.0339 228.563 35.4141C229.349 35.7943 229.971 36.3281 230.43 37.0156C230.888 37.7031 231.141 38.5104 231.187 39.4375H228.047C227.958 38.8385 227.724 38.3568 227.344 37.9922C226.969 37.6224 226.477 37.4375 225.867 37.4375C225.352 37.4375 224.901 37.5781 224.516 37.8594C224.135 38.1354 223.839 38.5391 223.625 39.0703C223.411 39.6016 223.305 40.2448 223.305 41C223.305 41.7656 223.409 42.4167 223.617 42.9531C223.831 43.4896 224.13 43.8984 224.516 44.1797C224.901 44.4609 225.352 44.6016 225.867 44.6016C226.247 44.6016 226.589 44.5234 226.891 44.3672C227.198 44.2109 227.451 43.9844 227.648 43.6875C227.852 43.3854 227.984 43.0234 228.047 42.6016H231.187C231.135 43.5182 230.885 44.3255 230.438 45.0234C229.995 45.7161 229.383 46.2578 228.602 46.6484C227.82 47.0391 226.896 47.2344 225.828 47.2344ZM238.787 47.2344C237.553 47.2344 236.49 46.9844 235.6 46.4844C234.714 45.9792 234.032 45.2656 233.553 44.3437C233.074 43.4167 232.834 42.3203 232.834 41.0547C232.834 39.8203 233.074 38.737 233.553 37.8047C234.032 36.8724 234.706 36.1458 235.576 35.625C236.451 35.1042 237.477 34.8438 238.654 34.8438C239.446 34.8438 240.183 34.9714 240.865 35.2266C241.553 35.4766 242.152 35.8542 242.662 36.3594C243.178 36.8646 243.579 37.5 243.865 38.2656C244.152 39.026 244.295 39.9167 244.295 40.9375V41.8516H234.162V39.7891H241.162C241.162 39.3099 241.058 38.8854 240.85 38.5156C240.641 38.1458 240.352 37.8568 239.982 37.6484C239.618 37.4349 239.193 37.3281 238.709 37.3281C238.204 37.3281 237.756 37.4453 237.365 37.6797C236.98 37.9089 236.678 38.2187 236.459 38.6094C236.24 38.9948 236.128 39.4245 236.123 39.8984V41.8594C236.123 42.4531 236.232 42.9661 236.451 43.3984C236.675 43.8307 236.99 44.1641 237.396 44.3984C237.803 44.6328 238.285 44.75 238.842 44.75C239.212 44.75 239.55 44.6979 239.857 44.5938C240.165 44.4896 240.428 44.3333 240.646 44.125C240.865 43.9167 241.032 43.6615 241.146 43.3594L244.225 43.5625C244.068 44.3021 243.748 44.9479 243.264 45.5C242.785 46.0469 242.165 46.474 241.404 46.7813C240.649 47.0833 239.777 47.2344 238.787 47.2344Z" fill="#1370AA"/>
<path d="M35.6667 51.5V49.1667H40.3333V45.55C39.3806 45.3361 38.5301 44.9328 37.7818 44.3402C37.0336 43.7475 36.4841 43.0036 36.1333 42.1083C34.675 41.9333 33.4551 41.2967 32.4735 40.1985C31.4919 39.1003 31.0008 37.8119 31 36.3333V35.1667C31 34.525 31.2287 33.9759 31.686 33.5193C32.1433 33.0628 32.6924 32.8341 33.3333 32.8333H35.6667V30.5H47.3333V32.8333H49.6667C50.3083 32.8333 50.8578 33.062 51.3152 33.5193C51.7725 33.9767 52.0008 34.5258 52 35.1667V36.3333C52 37.8111 51.5088 39.0995 50.5265 40.1985C49.5442 41.2975 48.3242 41.9341 46.8667 42.1083C46.5167 43.0028 45.9676 43.7467 45.2193 44.3402C44.4711 44.9336 43.6202 45.3369 42.6667 45.55V49.1667H47.3333V51.5H35.6667ZM35.6667 39.6V35.1667H33.3333V36.3333C33.3333 37.0722 33.5472 37.7384 33.975 38.3318C34.4028 38.9253 34.9667 39.348 35.6667 39.6ZM41.5 43.3333C42.4722 43.3333 43.2986 42.9931 43.9792 42.3125C44.6597 41.6319 45 40.8056 45 39.8333V32.8333H38V39.8333C38 40.8056 38.3403 41.6319 39.0208 42.3125C39.7014 42.9931 40.5278 43.3333 41.5 43.3333ZM47.3333 39.6C48.0333 39.3472 48.5972 38.9241 49.025 38.3307C49.4528 37.7372 49.6667 37.0714 49.6667 36.3333V35.1667H47.3333V39.6Z" fill="white"/>
</svg>
