<svg width="24" height="24" viewBox="0 0 24 24" fill="none" xmlns="http://www.w3.org/2000/svg">
<path fill-rule="evenodd" clip-rule="evenodd" d="M11.49 4.11001C10.1081 3.28101 8.55313 2.78286 6.94674 2.65449C5.34035 2.52612 3.72604 2.771 2.23 3.37001C2.01393 3.45601 1.82871 3.60497 1.69835 3.79755C1.568 3.99014 1.49855 4.21746 1.499 4.45001V16.11C1.499 16.89 2.288 17.424 3.013 17.134C4.23816 16.6441 5.55999 16.4441 6.87524 16.5496C8.19049 16.6551 9.46355 17.0632 10.595 17.742L11.73 18.422C11.817 18.475 11.91 18.497 11.999 18.496C12.0941 18.4979 12.1878 18.4725 12.269 18.423L13.403 17.742C14.5344 17.0632 15.8075 16.6551 17.1228 16.5496C18.438 16.4441 19.7598 16.6441 20.985 17.134C21.1525 17.201 21.3339 17.2259 21.5132 17.2066C21.6926 17.1873 21.8645 17.1243 22.0139 17.0232C22.1633 16.922 22.2856 16.7858 22.3702 16.6264C22.4548 16.4671 22.499 16.2894 22.499 16.109V4.45001C22.499 3.97401 22.209 3.54701 21.768 3.37001C20.2719 2.77146 18.6577 2.527 17.0515 2.65571C15.4453 2.78443 13.8906 3.28285 12.509 4.11201L11.999 4.41801L11.49 4.11001ZM12.75 6.50001C12.75 6.30109 12.671 6.11033 12.5303 5.96968C12.3897 5.82902 12.1989 5.75001 12 5.75001C11.8011 5.75001 11.6103 5.82902 11.4697 5.96968C11.329 6.11033 11.25 6.30109 11.25 6.50001V16C11.25 16.1989 11.329 16.3897 11.4697 16.5303C11.6103 16.671 11.8011 16.75 12 16.75C12.1989 16.75 12.3897 16.671 12.5303 16.5303C12.671 16.3897 12.75 16.1989 12.75 16V6.50001Z" fill="#1370AA"/>
<path d="M2.72501 19.042C3.71906 18.4622 4.84922 18.1567 6.00001 18.1567C7.1508 18.1567 8.28096 18.4622 9.27501 19.042L10.362 19.676C10.8592 19.9661 11.4244 20.119 12 20.119C12.5756 20.119 13.1409 19.9661 13.638 19.676L14.725 19.042C15.7191 18.4622 16.8492 18.1567 18 18.1567C19.1508 18.1567 20.281 18.4622 21.275 19.042L21.378 19.102C21.4631 19.1517 21.5376 19.2176 21.5972 19.296C21.6568 19.3744 21.7004 19.4638 21.7255 19.5591C21.7506 19.6544 21.7566 19.7537 21.7433 19.8513C21.73 19.9489 21.6977 20.0429 21.648 20.128C21.5984 20.2131 21.5325 20.2876 21.454 20.3472C21.3756 20.4068 21.2862 20.4504 21.1909 20.4755C21.0957 20.5006 20.9964 20.5066 20.8988 20.4933C20.8011 20.4801 20.7071 20.4477 20.622 20.398L20.519 20.338C19.7544 19.8921 18.8851 19.6571 18 19.6571C17.1149 19.6571 16.2456 19.8921 15.481 20.338L14.393 20.972C13.6667 21.3956 12.8409 21.6188 12 21.6188C11.1592 21.6188 10.3334 21.3956 9.60701 20.972L8.51901 20.338C7.75441 19.8921 6.88514 19.6571 6.00001 19.6571C5.11488 19.6571 4.24561 19.8921 3.48101 20.338L3.37801 20.398C3.20615 20.4983 3.0015 20.5261 2.80909 20.4755C2.61668 20.4249 2.45226 20.2999 2.35201 20.128C2.25176 19.9562 2.22388 19.7515 2.27452 19.5591C2.32515 19.3667 2.45015 19.2023 2.62201 19.102L2.72501 19.042Z" fill="#1370AA"/>
</svg>
