<svg width="44" height="44" viewBox="0 0 44 44" fill="none" xmlns="http://www.w3.org/2000/svg">
<path d="M22 3.66663C11.9167 3.66663 3.66669 11.9166 3.66669 22C3.66669 32.0833 11.9167 40.3333 22 40.3333C32.0834 40.3333 40.3334 32.0833 40.3334 22C40.3334 11.9166 32.0834 3.66663 22 3.66663ZM22 36.6666C13.915 36.6666 7.33335 30.085 7.33335 22C7.33335 13.915 13.915 7.33329 22 7.33329C30.085 7.33329 36.6667 13.915 36.6667 22C36.6667 30.085 30.085 36.6666 22 36.6666ZM30.415 13.8966L18.3334 25.9783L13.585 21.2483L11 23.8333L18.3334 31.1666L33 16.5L30.415 13.8966Z" fill="white"/>
</svg>
