<svg width="25" height="25" viewBox="0 0 25 25" fill="none" xmlns="http://www.w3.org/2000/svg">
<path d="M20.72 12.8967C20.7232 12.8594 20.7176 12.8219 20.7037 12.7872C20.6898 12.7525 20.668 12.7215 20.64 12.6967L20 12.0167C19.9582 11.99 19.9096 11.9758 19.86 11.9758C19.8104 11.9758 19.7618 11.99 19.72 12.0167C18.8654 12.3762 17.9471 12.5599 17.02 12.5567C16.2791 12.5596 15.5428 12.4413 14.84 12.2067C14.7802 12.1866 14.715 12.1899 14.6575 12.2158C14.6 12.2418 14.5545 12.2885 14.53 12.3467C14.2693 12.9345 13.9332 13.4858 13.53 13.9867C13.5151 14.0215 13.5075 14.0589 13.5075 14.0967C13.5075 14.1345 13.5151 14.1719 13.53 14.2067C13.598 14.4517 13.6815 14.6922 13.78 14.9267C13.8076 14.9868 13.858 15.0336 13.92 15.0567C16.36 15.9567 19.53 17.4467 19.53 22.0567V23.5567C19.534 23.63 19.534 23.7034 19.53 23.7767C19.525 23.8124 19.5278 23.8487 19.5381 23.8832C19.5485 23.9178 19.5662 23.9496 19.59 23.9767C19.6403 24.0274 19.7086 24.0562 19.78 24.0567H23.5C23.6326 24.0567 23.7598 24.004 23.8536 23.9102C23.9473 23.8165 24 23.6893 24 23.5567V22.7067C24 19.6067 21.84 18.8367 19.93 18.1567L19.44 17.9767C19.378 17.9536 19.3276 17.9068 19.3 17.8467C19.2697 17.7827 19.2462 17.7156 19.23 17.6467C19.1406 17.2382 19.1406 16.8152 19.23 16.4067C20.1324 15.4538 20.6613 14.2077 20.72 12.8967Z" fill="#1370AA"/>
<path d="M10 5.51668C10 4.8184 10.1045 4.12404 10.31 3.45668C10.3356 3.39247 10.3356 3.32089 10.31 3.25668C10.2695 3.19768 10.2092 3.15512 10.14 3.13668C9.76558 3.05479 9.38326 3.01455 9 3.01668C6.63 3.01668 4.25 4.57668 4.25 8.01668C4.25 12.1767 5.94 13.1767 6.14 13.5967C6.34053 14.2148 6.36134 14.8772 6.2 15.5067C6.13 15.7667 6.03 15.8767 5.96 15.9067L5.2 16.1767C2.76 17.0767 0 18.0167 0 22.0167V23.5167C0 23.6493 0.0526784 23.7765 0.146447 23.8702C0.240215 23.964 0.367392 24.0167 0.5 24.0167H17.5C17.6326 24.0167 17.7598 23.964 17.8536 23.8702C17.9473 23.7765 18 23.6493 18 23.5167V22.0167C18 18.0667 15.23 17.0867 12.78 16.2067L12 15.9467C11.93 15.9467 11.83 15.8067 11.76 15.5467C11.5855 14.922 11.5855 14.2614 11.76 13.6367C12.3153 13.0516 12.7652 12.375 13.09 11.6367C13.1104 11.5822 13.1126 11.5226 13.0964 11.4668C13.0802 11.4109 13.0464 11.3618 13 11.3267C12.0648 10.6756 11.3027 9.80601 10.7799 8.7935C10.2571 7.78099 9.98938 6.65615 10 5.51668Z" fill="#1370AA"/>
<path d="M20 10.1567C20.0448 10.1234 20.0992 10.1054 20.155 10.1054C20.2108 10.1054 20.2652 10.1234 20.31 10.1567L22.31 12.1567C22.403 12.2504 22.5136 12.3248 22.6354 12.3756C22.7573 12.4263 22.888 12.4525 23.02 12.4525C23.152 12.4525 23.2827 12.4263 23.4046 12.3756C23.5264 12.3248 23.637 12.2504 23.73 12.1567C23.8237 12.0637 23.8981 11.9531 23.9489 11.8313C23.9997 11.7094 24.0258 11.5787 24.0258 11.4467C24.0258 11.3147 23.9997 11.184 23.9489 11.0621C23.8981 10.9402 23.8237 10.8296 23.73 10.7367L21.73 8.73668C21.6967 8.69185 21.6787 8.63751 21.6787 8.58168C21.6787 8.52585 21.6967 8.4715 21.73 8.42668C22.4495 7.28189 22.7221 5.91218 22.4957 4.57915C22.2693 3.24613 21.5598 2.0432 20.5027 1.20011C19.4457 0.35703 18.1151 -0.0671276 16.7651 0.00865008C15.4151 0.0844277 14.1403 0.654831 13.1842 1.61092C12.2281 2.56701 11.6577 3.84178 11.582 5.19176C11.5062 6.54175 11.9303 7.87235 12.7734 8.92943C13.6165 9.98651 14.8194 10.696 16.1525 10.9224C17.4855 11.1488 18.8552 10.8762 20 10.1567ZM13.5 5.51668C13.5 4.82444 13.7053 4.14775 14.0899 3.57218C14.4744 2.99661 15.0211 2.54801 15.6606 2.2831C16.3001 2.01819 17.0039 1.94888 17.6828 2.08393C18.3617 2.21898 18.9854 2.55232 19.4749 3.0418C19.9644 3.53129 20.2977 4.15493 20.4327 4.83386C20.5678 5.51279 20.4985 6.21653 20.2336 6.85607C19.9687 7.49561 19.5201 8.04224 18.9445 8.42682C18.3689 8.81141 17.6922 9.01668 17 9.01668C16.0717 9.01668 15.1815 8.64793 14.5251 7.99155C13.8687 7.33517 13.5 6.44493 13.5 5.51668Z" fill="#1370AA"/>
</svg>
