<svg width="35" height="36" viewBox="0 0 35 36" fill="none" xmlns="http://www.w3.org/2000/svg">
<path d="M24.6892 24.0106C24.6892 24.0106 29.8133 18.9222 31.5513 17.1306C37.0517 11.7556 34.3104 0.683078 34.3104 0.683078C34.3104 0.683078 23.2917 -2.05817 17.9167 3.44225C13.7242 7.52725 11.0008 10.3581 11.0008 10.3581C11.0008 10.3581 4.12083 8.92475 0 13.0456L21.9479 35.0472C26.0687 30.8727 24.6892 24.0106 24.6892 24.0106ZM22.0017 7.88558C22.3345 7.55241 22.7297 7.28811 23.1647 7.10778C23.5997 6.92745 24.066 6.83463 24.5369 6.83463C25.0078 6.83463 25.4741 6.92745 25.9091 7.10778C26.3441 7.28811 26.7393 7.55241 27.0721 7.88558C27.5728 8.38688 27.9137 9.02537 28.0516 9.72036C28.1896 10.4153 28.1184 11.1356 27.8471 11.7902C27.5757 12.4447 27.1164 13.0041 26.5273 13.3977C25.9381 13.7912 25.2454 14.0013 24.5369 14.0013C23.8283 14.0013 23.1357 13.7912 22.5465 13.3977C21.9573 13.0041 21.498 12.4447 21.2267 11.7902C20.9554 11.1356 20.8842 10.4153 21.0221 9.72036C21.16 9.02537 21.5009 8.38688 22.0017 7.88558ZM1.79167 33.2556C5.10849 33.1625 8.28398 31.8923 10.75 29.6722L5.375 24.2972C1.79167 26.0889 1.79167 33.2556 1.79167 33.2556Z" fill="#1370AA"/>
</svg>
