<svg width="44" height="44" viewBox="0 0 44 44" fill="none" xmlns="http://www.w3.org/2000/svg">
<path d="M16.5146 16.2067C17.0558 15.0255 17.9755 14.0585 19.128 13.4588C20.2806 12.8591 21.6003 12.6609 22.8781 12.8957C23.7534 13.03 24.585 13.3677 25.3061 13.8816C26.0273 14.3954 26.6179 15.0712 27.0306 15.8547C27.3278 16.4814 27.4891 17.164 27.5037 17.8575C27.5184 18.551 27.3861 19.2397 27.1156 19.8785C26.8452 20.5172 26.4426 21.0916 25.9344 21.5637C25.4262 22.0358 24.8239 22.395 24.167 22.6178C23.4973 22.8721 22.9178 23.3189 22.5016 23.9019C22.0853 24.4849 21.8508 25.178 21.8276 25.894V27.247" stroke="white" stroke-width="1.5" stroke-miterlimit="10" stroke-linecap="round"/>
<path d="M21.7818 31.9438H21.7965" stroke="white" stroke-width="2" stroke-linecap="round" stroke-linejoin="round"/>
<path d="M22 39.4166C26.6192 39.4166 31.0492 37.5816 34.3154 34.3154C37.5817 31.0491 39.4166 26.6191 39.4166 21.9999C39.4166 17.3807 37.5817 12.9507 34.3154 9.68448C31.0492 6.41822 26.6192 4.58325 22 4.58325C17.3808 4.58325 12.9508 6.41822 9.68454 9.68448C6.41828 12.9507 4.58331 17.3807 4.58331 21.9999C4.58331 26.6191 6.41828 31.0491 9.68454 34.3154C12.9508 37.5816 17.3808 39.4166 22 39.4166Z" stroke="white" stroke-width="1.5" stroke-linecap="round" stroke-linejoin="round"/>
</svg>
