<svg width="36" height="42" viewBox="0 0 36 42" fill="none" xmlns="http://www.w3.org/2000/svg">
<path d="M7.0924 29.416C5.98982 29.5776 4.17483 29.8783 2.9674 28.5085C1.75998 27.1387 0.715841 23.8309 0.256934 20.8747C-0.420253 16.5176 0.251778 12.8455 2.14756 10.5355C3.26475 9.17514 4.73084 8.3871 6.38772 8.26163C7.80654 8.15249 9.92662 8.70764 11.9737 11.9733C13.2558 14.0194 14.2312 16.7376 14.6497 19.4301C15.1551 22.6802 15.6475 26.1487 13.9244 27.3922C12.9525 28.0943 12.2547 28.3375 10.6055 28.7302C9.24943 29.0525 8.19584 29.2536 7.0924 29.416ZM5.13131 32.2115L14.489 30.2814C15.2797 30.1181 15.9139 30.553 16.2078 31.8558C17.172 36.132 15.7901 41.2487 11.4623 41.2487C7.36397 41.2487 4.63287 36.5772 4.18686 34.0661C3.98318 32.9274 4.27365 32.3877 5.13131 32.2115ZM25.1436 20.4811C23.4944 20.0901 22.7966 19.8451 21.8247 19.143C20.1016 17.8995 20.594 14.4311 21.0994 11.1809C21.5179 8.4885 22.4933 5.76686 23.7755 3.72413C25.8208 0.458503 27.9408 -0.0966535 29.3614 0.0124871C31.0165 0.138815 32.4835 0.925144 33.6007 2.28553C35.4982 4.59553 36.1702 8.26764 35.4913 12.6247C35.0315 15.5809 33.9908 18.8775 32.7765 20.2585C31.5622 21.6395 29.7576 21.3276 28.6515 21.166C27.5455 21.0044 26.4988 20.8025 25.1436 20.4811ZM30.6169 23.9615L21.2592 22.0314C20.4686 21.8681 19.8344 22.303 19.5405 23.6058C18.5771 27.882 19.959 32.9987 24.2868 32.9987C28.3851 32.9987 31.1162 28.3272 31.5622 25.8161C31.7651 24.6774 31.4746 24.1377 30.6169 23.9615Z" fill="white"/>
</svg>
