<svg width="44" height="44" viewBox="0 0 44 44" fill="none" xmlns="http://www.w3.org/2000/svg">
<path d="M7.33331 32.9998C7.33331 31.0549 8.10593 29.1897 9.4812 27.8144C10.8565 26.4391 12.7217 25.6665 14.6666 25.6665H29.3333C31.2782 25.6665 33.1435 26.4391 34.5188 27.8144C35.894 29.1897 36.6666 31.0549 36.6666 32.9998C36.6666 33.9723 36.2803 34.9049 35.5927 35.5926C34.9051 36.2802 33.9724 36.6665 33 36.6665H11C10.0275 36.6665 9.09489 36.2802 8.40725 35.5926C7.71962 34.9049 7.33331 33.9723 7.33331 32.9998Z" stroke="white" stroke-width="1.5" stroke-linejoin="round"/>
<path d="M22 18.3333C25.0376 18.3333 27.5 15.8708 27.5 12.8333C27.5 9.79569 25.0376 7.33325 22 7.33325C18.9624 7.33325 16.5 9.79569 16.5 12.8333C16.5 15.8708 18.9624 18.3333 22 18.3333Z" stroke="white" stroke-width="1.5"/>
</svg>
